<mxfile host="app.diagrams.net" modified="2020-07-04T20:07:56.621Z" agent="5.0 (Macintosh; Intel Mac OS X 10_15_5) AppleWebKit/537.36 (KHTML, like Gecko) Chrome/83.0.4103.116 Safari/537.36" etag="LaALdBHYJEh6i8lc23_7" version="13.3.5" type="github">
  <diagram id="C5RBs43oDa-KdzZeNtuy" name="Page-1">
    <mxGraphModel dx="2719" dy="2113" grid="1" gridSize="10" guides="1" tooltips="1" connect="1" arrows="1" fold="1" page="1" pageScale="1" pageWidth="827" pageHeight="1169" math="0" shadow="0">
      <root>
        <mxCell id="WIyWlLk6GJQsqaUBKTNV-0" />
        <mxCell id="WIyWlLk6GJQsqaUBKTNV-1" parent="WIyWlLk6GJQsqaUBKTNV-0" />
        <mxCell id="lguihTrJesUZVeJumMv--24" value="" style="rounded=0;whiteSpace=wrap;html=1;fontSize=15;fillColor=none;strokeWidth=2;dashed=1;labelBackgroundColor=none;" parent="WIyWlLk6GJQsqaUBKTNV-1" vertex="1">
          <mxGeometry x="-86" y="270" width="902" height="440" as="geometry" />
        </mxCell>
        <mxCell id="Fh5ID8DqyuNmly4tTI_g-8" value="" style="edgeStyle=orthogonalEdgeStyle;rounded=0;orthogonalLoop=1;jettySize=auto;html=1;entryX=0;entryY=0.5;entryDx=0;entryDy=0;" parent="WIyWlLk6GJQsqaUBKTNV-1" source="WIyWlLk6GJQsqaUBKTNV-3" target="Fh5ID8DqyuNmly4tTI_g-9" edge="1">
          <mxGeometry relative="1" as="geometry">
            <mxPoint x="229" y="314.18" as="targetPoint" />
          </mxGeometry>
        </mxCell>
        <mxCell id="WIyWlLk6GJQsqaUBKTNV-3" value="&lt;font style=&quot;font-size: 20px&quot;&gt;Choix d&#39;une pizza : &lt;font color=&quot;#99004d&quot;&gt;&lt;b&gt;catalogue&lt;/b&gt;&lt;/font&gt;&lt;/font&gt;" style="rounded=1;whiteSpace=wrap;html=1;fontSize=12;glass=0;strokeWidth=1;shadow=0;aspect=fixed;" parent="WIyWlLk6GJQsqaUBKTNV-1" vertex="1">
          <mxGeometry x="36.5" y="390.00000000000006" width="163" height="62.54" as="geometry" />
        </mxCell>
        <mxCell id="1Tk0HkHW5LTEGYrqBiVO-42" value="" style="edgeStyle=orthogonalEdgeStyle;rounded=0;orthogonalLoop=1;jettySize=auto;html=1;endArrow=classic;endFill=1;fontColor=#000000;entryX=0.5;entryY=0;entryDx=0;entryDy=0;" parent="WIyWlLk6GJQsqaUBKTNV-1" source="WIyWlLk6GJQsqaUBKTNV-6" target="1Tk0HkHW5LTEGYrqBiVO-40" edge="1">
          <mxGeometry relative="1" as="geometry">
            <mxPoint x="141.5" y="732.4099999999999" as="targetPoint" />
          </mxGeometry>
        </mxCell>
        <mxCell id="1Tk0HkHW5LTEGYrqBiVO-44" value="&lt;font style=&quot;font-size: 15px&quot;&gt;Oui&lt;/font&gt;" style="edgeLabel;html=1;align=center;verticalAlign=middle;resizable=0;points=[];fontColor=#000000;rotation=269;" parent="1Tk0HkHW5LTEGYrqBiVO-42" vertex="1" connectable="0">
          <mxGeometry x="-0.301" y="1" relative="1" as="geometry">
            <mxPoint x="-11" y="24.42" as="offset" />
          </mxGeometry>
        </mxCell>
        <mxCell id="MHTNPu9FD_tJbpRzddWY-10" value="" style="edgeStyle=orthogonalEdgeStyle;rounded=0;orthogonalLoop=1;jettySize=auto;html=1;endArrow=classic;endFill=1;entryX=1;entryY=0.5;entryDx=0;entryDy=0;" parent="WIyWlLk6GJQsqaUBKTNV-1" source="WIyWlLk6GJQsqaUBKTNV-10" target="xwcKqS5W2qBAeuI9ddff-14" edge="1">
          <mxGeometry relative="1" as="geometry">
            <mxPoint x="-33.11481481481496" y="939.3333333333335" as="targetPoint" />
          </mxGeometry>
        </mxCell>
        <mxCell id="MHTNPu9FD_tJbpRzddWY-14" value="" style="edgeStyle=orthogonalEdgeStyle;rounded=0;orthogonalLoop=1;jettySize=auto;html=1;endArrow=classic;endFill=1;entryX=0;entryY=0.5;entryDx=0;entryDy=0;" parent="WIyWlLk6GJQsqaUBKTNV-1" source="WIyWlLk6GJQsqaUBKTNV-10" target="xwcKqS5W2qBAeuI9ddff-13" edge="1">
          <mxGeometry relative="1" as="geometry">
            <mxPoint x="297.5" y="939.1799999999998" as="targetPoint" />
          </mxGeometry>
        </mxCell>
        <mxCell id="bbMm7TcKJNfFNzZPyWXp-29" value="" style="edgeStyle=orthogonalEdgeStyle;rounded=0;orthogonalLoop=1;jettySize=auto;html=1;entryX=0;entryY=0.5;entryDx=0;entryDy=0;exitX=1;exitY=0.5;exitDx=0;exitDy=0;" parent="WIyWlLk6GJQsqaUBKTNV-1" source="xwcKqS5W2qBAeuI9ddff-13" target="bbMm7TcKJNfFNzZPyWXp-31" edge="1">
          <mxGeometry relative="1" as="geometry">
            <mxPoint x="580" y="1009.1800000000004" as="targetPoint" />
            <mxPoint x="426.4375" y="939.23" as="sourcePoint" />
          </mxGeometry>
        </mxCell>
        <mxCell id="zhbQQQbT5VpZ4maYAVL1-5" value="" style="edgeStyle=orthogonalEdgeStyle;rounded=0;orthogonalLoop=1;jettySize=auto;html=1;entryX=0.5;entryY=0;entryDx=0;entryDy=0;" parent="WIyWlLk6GJQsqaUBKTNV-1" target="WIyWlLk6GJQsqaUBKTNV-3" edge="1">
          <mxGeometry relative="1" as="geometry">
            <mxPoint x="897" y="100" as="targetPoint" />
            <Array as="points">
              <mxPoint x="897" y="180" />
              <mxPoint x="118" y="180" />
            </Array>
            <mxPoint x="897" y="140" as="sourcePoint" />
          </mxGeometry>
        </mxCell>
        <mxCell id="lguihTrJesUZVeJumMv--40" value="" style="edgeStyle=orthogonalEdgeStyle;rounded=0;orthogonalLoop=1;jettySize=auto;html=1;startArrow=none;startFill=0;endArrow=classic;endFill=1;fontSize=15;" parent="WIyWlLk6GJQsqaUBKTNV-1" source="Fh5ID8DqyuNmly4tTI_g-0" target="lguihTrJesUZVeJumMv--39" edge="1">
          <mxGeometry relative="1" as="geometry" />
        </mxCell>
        <mxCell id="Fh5ID8DqyuNmly4tTI_g-0" value="&lt;font style=&quot;font-size: 20px&quot;&gt;Connexion&lt;/font&gt;" style="rounded=1;whiteSpace=wrap;html=1;fontSize=12;glass=0;strokeWidth=1;shadow=0;" parent="WIyWlLk6GJQsqaUBKTNV-1" vertex="1">
          <mxGeometry x="827" y="-30" width="140" height="50" as="geometry" />
        </mxCell>
        <mxCell id="zhbQQQbT5VpZ4maYAVL1-14" value="" style="edgeStyle=orthogonalEdgeStyle;rounded=0;orthogonalLoop=1;jettySize=auto;html=1;startArrow=none;startFill=0;endArrow=classic;endFill=1;entryX=0;entryY=0.5;entryDx=0;entryDy=0;exitX=0.5;exitY=0;exitDx=0;exitDy=0;" parent="WIyWlLk6GJQsqaUBKTNV-1" source="Fh5ID8DqyuNmly4tTI_g-9" target="Fh5ID8DqyuNmly4tTI_g-26" edge="1">
          <mxGeometry relative="1" as="geometry">
            <mxPoint x="470" y="280" as="targetPoint" />
          </mxGeometry>
        </mxCell>
        <mxCell id="lguihTrJesUZVeJumMv--11" value="&lt;font style=&quot;font-size: 15px&quot;&gt;Oui&lt;/font&gt;" style="edgeLabel;html=1;align=center;verticalAlign=middle;resizable=0;points=[];" parent="zhbQQQbT5VpZ4maYAVL1-14" vertex="1" connectable="0">
          <mxGeometry x="0.374" y="1" relative="1" as="geometry">
            <mxPoint x="-1" as="offset" />
          </mxGeometry>
        </mxCell>
        <mxCell id="_vTTdTyD4Z65t_9HGQAe-5" value="" style="edgeStyle=orthogonalEdgeStyle;rounded=0;orthogonalLoop=1;jettySize=auto;html=1;entryX=1;entryY=0;entryDx=0;entryDy=0;" parent="WIyWlLk6GJQsqaUBKTNV-1" source="Fh5ID8DqyuNmly4tTI_g-9" target="WIyWlLk6GJQsqaUBKTNV-6" edge="1">
          <mxGeometry relative="1" as="geometry">
            <Array as="points">
              <mxPoint x="353" y="510" />
              <mxPoint x="177" y="510" />
            </Array>
          </mxGeometry>
        </mxCell>
        <mxCell id="_vTTdTyD4Z65t_9HGQAe-12" value="Non" style="edgeLabel;html=1;align=center;verticalAlign=middle;resizable=0;points=[];" parent="_vTTdTyD4Z65t_9HGQAe-5" vertex="1" connectable="0">
          <mxGeometry x="-0.5352" y="-1" relative="1" as="geometry">
            <mxPoint as="offset" />
          </mxGeometry>
        </mxCell>
        <mxCell id="Fh5ID8DqyuNmly4tTI_g-9" value="&lt;font style=&quot;font-size: 20px&quot;&gt;Ajout/retrait d&#39;ingrédient ?&lt;/font&gt;" style="rhombus;whiteSpace=wrap;html=1;shadow=0;fontFamily=Helvetica;fontSize=12;align=center;strokeWidth=1;spacing=6;spacingTop=-4;aspect=fixed;" parent="WIyWlLk6GJQsqaUBKTNV-1" vertex="1">
          <mxGeometry x="260" y="345.11" width="186" height="152.32" as="geometry" />
        </mxCell>
        <mxCell id="lguihTrJesUZVeJumMv--3" value="" style="edgeStyle=orthogonalEdgeStyle;rounded=0;orthogonalLoop=1;jettySize=auto;html=1;startArrow=none;startFill=0;endArrow=classic;endFill=1;entryX=1;entryY=0.5;entryDx=0;entryDy=0;" parent="WIyWlLk6GJQsqaUBKTNV-1" source="Fh5ID8DqyuNmly4tTI_g-26" target="_vTTdTyD4Z65t_9HGQAe-3" edge="1">
          <mxGeometry relative="1" as="geometry">
            <mxPoint x="731.5" y="495.3499999999999" as="targetPoint" />
            <Array as="points">
              <mxPoint x="710" y="316" />
              <mxPoint x="710" y="613" />
            </Array>
          </mxGeometry>
        </mxCell>
        <mxCell id="Fh5ID8DqyuNmly4tTI_g-26" value="&lt;font style=&quot;font-size: 20px&quot;&gt;Modification et sa prise en compte de la modification&lt;br&gt;&lt;/font&gt;" style="rounded=1;whiteSpace=wrap;html=1;fontSize=12;glass=0;strokeWidth=1;shadow=0;align=center;aspect=fixed;" parent="WIyWlLk6GJQsqaUBKTNV-1" vertex="1">
          <mxGeometry x="450" y="286.51000000000005" width="233" height="71.93" as="geometry" />
        </mxCell>
        <mxCell id="G-hIVbg5v9CWW5Yy8Wli-13" value="" style="edgeStyle=orthogonalEdgeStyle;rounded=0;orthogonalLoop=1;jettySize=auto;html=1;" parent="WIyWlLk6GJQsqaUBKTNV-1" source="G-hIVbg5v9CWW5Yy8Wli-2" edge="1">
          <mxGeometry relative="1" as="geometry">
            <mxPoint x="220" y="1237.58" as="targetPoint" />
          </mxGeometry>
        </mxCell>
        <mxCell id="uQ-XWgEHN9rOL8nD1H7O-12" value="" style="edgeStyle=orthogonalEdgeStyle;rounded=0;orthogonalLoop=1;jettySize=auto;html=1;dashed=1;startArrow=none;startFill=0;endArrow=none;endFill=0;strokeWidth=1;entryX=0.5;entryY=0;entryDx=0;entryDy=0;" parent="WIyWlLk6GJQsqaUBKTNV-1" source="G-hIVbg5v9CWW5Yy8Wli-2" target="MHTNPu9FD_tJbpRzddWY-18" edge="1">
          <mxGeometry relative="1" as="geometry">
            <mxPoint x="470" y="1171.58" as="targetPoint" />
          </mxGeometry>
        </mxCell>
        <mxCell id="G-hIVbg5v9CWW5Yy8Wli-2" value="&lt;font style=&quot;font-size: 20px&quot;&gt;Génération du QR Code unique&lt;/font&gt;" style="rounded=1;whiteSpace=wrap;html=1;direction=north;fillColor=#f5f5f5;strokeColor=#666666;fontColor=#333333;aspect=fixed;" parent="WIyWlLk6GJQsqaUBKTNV-1" vertex="1">
          <mxGeometry x="143.5" y="1139.71" width="154" height="64.26" as="geometry" />
        </mxCell>
        <mxCell id="IyXliuLSOCAkXFB-hzut-2" value="" style="edgeStyle=orthogonalEdgeStyle;rounded=0;orthogonalLoop=1;jettySize=auto;html=1;entryX=1;entryY=0.5;entryDx=0;entryDy=0;" edge="1" parent="WIyWlLk6GJQsqaUBKTNV-1" source="uQ-XWgEHN9rOL8nD1H7O-24" target="IyXliuLSOCAkXFB-hzut-3">
          <mxGeometry relative="1" as="geometry">
            <mxPoint x="220.5" y="1501.21" as="targetPoint" />
          </mxGeometry>
        </mxCell>
        <mxCell id="uQ-XWgEHN9rOL8nD1H7O-24" value="&lt;div style=&quot;text-align: left&quot;&gt;&lt;span style=&quot;font-size: 20px&quot;&gt;-Affichage de la commande au pizzaiolo&lt;/span&gt;&lt;/div&gt;" style="rounded=1;whiteSpace=wrap;html=1;direction=north;fillColor=#dae8fc;strokeColor=#6c8ebf;" parent="WIyWlLk6GJQsqaUBKTNV-1" vertex="1">
          <mxGeometry x="134" y="1334.3999999999999" width="165" height="91.21" as="geometry" />
        </mxCell>
        <mxCell id="uQ-XWgEHN9rOL8nD1H7O-26" value="&lt;span style=&quot;font-size: 20px&quot;&gt;- Ajout de la commande aux commande en attente de livraison&lt;/span&gt;" style="rounded=1;whiteSpace=wrap;html=1;direction=north;fillColor=#f8cecc;strokeColor=#b85450;align=left;" parent="WIyWlLk6GJQsqaUBKTNV-1" vertex="1">
          <mxGeometry x="135.5" y="1730" width="162" height="130" as="geometry" />
        </mxCell>
        <mxCell id="uQ-XWgEHN9rOL8nD1H7O-31" value="" style="edgeStyle=orthogonalEdgeStyle;rounded=0;orthogonalLoop=1;jettySize=auto;html=1;startArrow=none;startFill=0;endArrow=classic;endFill=1;strokeWidth=1;" parent="WIyWlLk6GJQsqaUBKTNV-1" source="uQ-XWgEHN9rOL8nD1H7O-28" target="uQ-XWgEHN9rOL8nD1H7O-30" edge="1">
          <mxGeometry relative="1" as="geometry" />
        </mxCell>
        <mxCell id="uQ-XWgEHN9rOL8nD1H7O-28" value="&lt;span style=&quot;font-size: 20px&quot;&gt;- Prise en charge par le livreur&lt;/span&gt;&lt;br style=&quot;font-size: 20px ; font-family: &amp;#34;helvetica&amp;#34;&quot;&gt;&lt;span style=&quot;font-size: 20px ; font-family: &amp;#34;helvetica&amp;#34;&quot;&gt;- Envoi d&#39;un message au client l&#39;informant de la livraison&lt;/span&gt;" style="rounded=1;whiteSpace=wrap;html=1;direction=north;fillColor=#ffe6cc;strokeColor=#d79b00;align=left;" parent="WIyWlLk6GJQsqaUBKTNV-1" vertex="1">
          <mxGeometry x="141.25" y="1900" width="150.5" height="180" as="geometry" />
        </mxCell>
        <mxCell id="bbMm7TcKJNfFNzZPyWXp-22" value="" style="edgeStyle=orthogonalEdgeStyle;rounded=0;orthogonalLoop=1;jettySize=auto;html=1;entryX=0.5;entryY=0;entryDx=0;entryDy=0;" parent="WIyWlLk6GJQsqaUBKTNV-1" source="uQ-XWgEHN9rOL8nD1H7O-30" edge="1" target="bbMm7TcKJNfFNzZPyWXp-14">
          <mxGeometry relative="1" as="geometry">
            <mxPoint x="218.66666666666652" y="2020.02" as="targetPoint" />
          </mxGeometry>
        </mxCell>
        <mxCell id="uQ-XWgEHN9rOL8nD1H7O-30" value="&lt;span style=&quot;font-size: 20px&quot;&gt;- Règlement accepté&lt;/span&gt;&lt;br style=&quot;font-size: 20px&quot;&gt;&lt;span style=&quot;font-size: 20px&quot;&gt;- Commande archivée&lt;/span&gt;" style="rounded=1;whiteSpace=wrap;html=1;direction=north;fillColor=#d5e8d4;strokeColor=#82b366;align=left;" parent="WIyWlLk6GJQsqaUBKTNV-1" vertex="1">
          <mxGeometry x="130.5" y="2160" width="172" height="113.32" as="geometry" />
        </mxCell>
        <mxCell id="bbMm7TcKJNfFNzZPyWXp-9" value="" style="edgeStyle=orthogonalEdgeStyle;rounded=0;orthogonalLoop=1;jettySize=auto;html=1;entryX=1;entryY=0.5;entryDx=0;entryDy=0;exitX=0.5;exitY=1;exitDx=0;exitDy=0;" parent="WIyWlLk6GJQsqaUBKTNV-1" source="xwcKqS5W2qBAeuI9ddff-14" target="G-hIVbg5v9CWW5Yy8Wli-2" edge="1">
          <mxGeometry relative="1" as="geometry">
            <mxPoint x="220" y="1127.58" as="targetPoint" />
            <Array as="points">
              <mxPoint x="-102" y="970" />
              <mxPoint x="-102" y="1118" />
              <mxPoint x="221" y="1118" />
            </Array>
            <mxPoint x="-101.5" y="1000.8799999999997" as="sourcePoint" />
          </mxGeometry>
        </mxCell>
        <mxCell id="G-hIVbg5v9CWW5Yy8Wli-20" value="&lt;font color=&quot;#ff0000&quot; style=&quot;font-size: 15px&quot;&gt;Limite d&#39;annulation et/ou de modification de la commande&lt;br&gt;&lt;/font&gt;" style="text;html=1;strokeColor=none;fillColor=none;align=center;verticalAlign=middle;whiteSpace=wrap;rounded=0;fontStyle=2;dashed=1;" parent="WIyWlLk6GJQsqaUBKTNV-1" vertex="1">
          <mxGeometry x="860" y="1226.58" width="340" height="50" as="geometry" />
        </mxCell>
        <mxCell id="P_ejqXxA3MmKmbAG34VU-2" value="" style="edgeStyle=orthogonalEdgeStyle;rounded=0;orthogonalLoop=1;jettySize=auto;html=1;" parent="WIyWlLk6GJQsqaUBKTNV-1" source="P_ejqXxA3MmKmbAG34VU-1" target="Fh5ID8DqyuNmly4tTI_g-0" edge="1">
          <mxGeometry relative="1" as="geometry" />
        </mxCell>
        <mxCell id="P_ejqXxA3MmKmbAG34VU-1" value="" style="ellipse;whiteSpace=wrap;html=1;aspect=fixed;fillColor=#dae8fc;gradientColor=#7ea6e0;strokeColor=#6c8ebf;" parent="WIyWlLk6GJQsqaUBKTNV-1" vertex="1">
          <mxGeometry x="876.5" y="-120" width="40" height="40" as="geometry" />
        </mxCell>
        <mxCell id="P_ejqXxA3MmKmbAG34VU-4" value="" style="shape=flexArrow;endArrow=classic;html=1;fillColor=#cce5ff;strokeColor=#36393d;" parent="WIyWlLk6GJQsqaUBKTNV-1" edge="1">
          <mxGeometry width="50" height="50" relative="1" as="geometry">
            <mxPoint x="826" y="1310" as="sourcePoint" />
            <mxPoint x="826" y="1730" as="targetPoint" />
          </mxGeometry>
        </mxCell>
        <mxCell id="P_ejqXxA3MmKmbAG34VU-11" value="" style="shape=flexArrow;endArrow=classic;html=1;fillColor=#f5f5f5;strokeColor=#666666;" parent="WIyWlLk6GJQsqaUBKTNV-1" edge="1">
          <mxGeometry width="50" height="50" relative="1" as="geometry">
            <mxPoint x="827" y="1139.7099999999998" as="sourcePoint" />
            <mxPoint x="827" y="1310" as="targetPoint" />
          </mxGeometry>
        </mxCell>
        <mxCell id="P_ejqXxA3MmKmbAG34VU-13" value="" style="shape=flexArrow;endArrow=classic;html=1;fillColor=#ffcccc;strokeColor=#36393d;" parent="WIyWlLk6GJQsqaUBKTNV-1" edge="1">
          <mxGeometry width="50" height="50" relative="1" as="geometry">
            <mxPoint x="825" y="1730" as="sourcePoint" />
            <mxPoint x="824.5" y="1900" as="targetPoint" />
          </mxGeometry>
        </mxCell>
        <mxCell id="P_ejqXxA3MmKmbAG34VU-18" value="" style="shape=flexArrow;endArrow=classic;html=1;fillColor=#ffe6cc;strokeColor=#d79b00;" parent="WIyWlLk6GJQsqaUBKTNV-1" edge="1">
          <mxGeometry width="50" height="50" relative="1" as="geometry">
            <mxPoint x="825" y="1900" as="sourcePoint" />
            <mxPoint x="825.17" y="2160" as="targetPoint" />
            <Array as="points">
              <mxPoint x="825" y="2030" />
            </Array>
          </mxGeometry>
        </mxCell>
        <mxCell id="SvVdULVF1Hvvb6DCQOAH-8" value="" style="shape=flexArrow;endArrow=classic;html=1;fillColor=#d5e8d4;strokeColor=#82b366;entryX=0.5;entryY=0;entryDx=0;entryDy=0;" parent="WIyWlLk6GJQsqaUBKTNV-1" edge="1">
          <mxGeometry width="50" height="50" relative="1" as="geometry">
            <mxPoint x="827" y="2160" as="sourcePoint" />
            <mxPoint x="827" y="2309.9999999999995" as="targetPoint" />
          </mxGeometry>
        </mxCell>
        <mxCell id="SvVdULVF1Hvvb6DCQOAH-13" value="&lt;font color=&quot;#000000&quot; style=&quot;font-size: 28px&quot;&gt;&lt;b&gt;&lt;br&gt;&lt;/b&gt;&lt;/font&gt;" style="text;html=1;strokeColor=none;fillColor=none;align=center;verticalAlign=middle;whiteSpace=wrap;rounded=0;fontColor=#FF99CC;" parent="WIyWlLk6GJQsqaUBKTNV-1" vertex="1">
          <mxGeometry x="170" y="-330" width="590" height="110" as="geometry" />
        </mxCell>
        <mxCell id="MHTNPu9FD_tJbpRzddWY-18" value="&lt;i&gt;&lt;font style=&quot;font-size: 20px&quot;&gt;Commande en attente de préparation&lt;/font&gt;&lt;/i&gt;" style="rounded=1;whiteSpace=wrap;html=1;direction=north;fillColor=#F5F5F5;strokeColor=#666666;dashed=1;dashPattern=1 2;" parent="WIyWlLk6GJQsqaUBKTNV-1" vertex="1">
          <mxGeometry x="477" y="1141.8400000000001" width="280" height="60" as="geometry" />
        </mxCell>
        <mxCell id="WIyWlLk6GJQsqaUBKTNV-10" value="&lt;font style=&quot;font-size: 20px&quot; color=&quot;#663300&quot;&gt;&lt;b&gt;Règlement *&lt;br&gt;&lt;/b&gt;&lt;/font&gt;" style="rhombus;whiteSpace=wrap;html=1;shadow=0;fontFamily=Helvetica;fontSize=12;align=center;strokeWidth=1;spacing=6;spacingTop=-4;aspect=fixed;" parent="WIyWlLk6GJQsqaUBKTNV-1" vertex="1">
          <mxGeometry x="70" y="881.98" width="143" height="114.4" as="geometry" />
        </mxCell>
        <mxCell id="uQ-XWgEHN9rOL8nD1H7O-8" value="" style="endArrow=none;html=1;dashed=1;fillColor=#f8cecc;strokeColor=#b85450;strokeWidth=2;" parent="WIyWlLk6GJQsqaUBKTNV-1" edge="1">
          <mxGeometry width="50" height="50" relative="1" as="geometry">
            <mxPoint x="850" y="1237.58" as="sourcePoint" />
            <mxPoint x="-510" y="1237.58" as="targetPoint" />
          </mxGeometry>
        </mxCell>
        <mxCell id="zFR9wRXN1Uo4z8-Ios9r-1" value="" style="endArrow=classic;html=1;exitX=0.5;exitY=1;exitDx=0;exitDy=0;entryX=0.5;entryY=0;entryDx=0;entryDy=0;" parent="WIyWlLk6GJQsqaUBKTNV-1" target="zFR9wRXN1Uo4z8-Ios9r-2" edge="1">
          <mxGeometry width="50" height="50" relative="1" as="geometry">
            <mxPoint x="-400.0000000000002" y="-79.99999999999977" as="sourcePoint" />
            <mxPoint x="-400" y="-40" as="targetPoint" />
          </mxGeometry>
        </mxCell>
        <mxCell id="zFR9wRXN1Uo4z8-Ios9r-4" value="" style="edgeStyle=orthogonalEdgeStyle;rounded=0;orthogonalLoop=1;jettySize=auto;html=1;entryX=0.5;entryY=0;entryDx=0;entryDy=0;" parent="WIyWlLk6GJQsqaUBKTNV-1" source="zFR9wRXN1Uo4z8-Ios9r-2" target="3-5R2tizVFBPjiLvBnB7-0" edge="1">
          <mxGeometry relative="1" as="geometry">
            <mxPoint x="-400" y="150" as="targetPoint" />
          </mxGeometry>
        </mxCell>
        <mxCell id="zFR9wRXN1Uo4z8-Ios9r-2" value="&lt;span style=&quot;font-size: 20px&quot;&gt;Authentification hôte de caisse&lt;/span&gt;" style="rounded=1;whiteSpace=wrap;html=1;fontSize=12;glass=0;strokeWidth=1;shadow=0;aspect=fixed;" parent="WIyWlLk6GJQsqaUBKTNV-1" vertex="1">
          <mxGeometry x="-479.5" y="-33.42" width="159" height="56.84" as="geometry" />
        </mxCell>
        <mxCell id="lguihTrJesUZVeJumMv--32" value="" style="edgeStyle=orthogonalEdgeStyle;rounded=0;orthogonalLoop=1;jettySize=auto;html=1;startArrow=none;startFill=0;endArrow=classic;endFill=1;fontSize=15;entryX=0.5;entryY=0;entryDx=0;entryDy=0;" parent="WIyWlLk6GJQsqaUBKTNV-1" source="3-5R2tizVFBPjiLvBnB7-0" target="WIyWlLk6GJQsqaUBKTNV-3" edge="1">
          <mxGeometry relative="1" as="geometry">
            <mxPoint x="120" y="250" as="targetPoint" />
            <Array as="points">
              <mxPoint x="-400" y="180" />
              <mxPoint x="118" y="180" />
            </Array>
          </mxGeometry>
        </mxCell>
        <mxCell id="3-5R2tizVFBPjiLvBnB7-0" value="&lt;font style=&quot;font-size: 20px&quot;&gt;Identification client&lt;/font&gt;" style="rounded=1;whiteSpace=wrap;html=1;fontSize=12;glass=0;strokeWidth=1;shadow=0;" parent="WIyWlLk6GJQsqaUBKTNV-1" vertex="1">
          <mxGeometry x="-470" y="59.99999999999997" width="140" height="50" as="geometry" />
        </mxCell>
        <mxCell id="bbMm7TcKJNfFNzZPyWXp-14" value="" style="shape=sumEllipse;perimeter=ellipsePerimeter;whiteSpace=wrap;html=1;backgroundOutline=1;fillColor=#6C8EBF;gradientColor=#ffffff;aspect=fixed;strokeColor=#6C8EBF;" parent="WIyWlLk6GJQsqaUBKTNV-1" vertex="1">
          <mxGeometry x="196.5" y="2320" width="40" height="40" as="geometry" />
        </mxCell>
        <mxCell id="bbMm7TcKJNfFNzZPyWXp-15" value="&lt;span style=&quot;font-size: 20px&quot;&gt;&lt;i&gt;Commande en préparation&lt;/i&gt;&lt;/span&gt;" style="rounded=1;whiteSpace=wrap;html=1;direction=north;fillColor=#dae8fc;strokeColor=#6c8ebf;dashed=1;dashPattern=1 2;" parent="WIyWlLk6GJQsqaUBKTNV-1" vertex="1">
          <mxGeometry x="480" y="1350" width="280" height="60" as="geometry" />
        </mxCell>
        <mxCell id="bbMm7TcKJNfFNzZPyWXp-16" value="&lt;font style=&quot;font-size: 20px&quot;&gt;&lt;i&gt;Commande en attente de livraison&lt;/i&gt;&lt;/font&gt;" style="rounded=1;whiteSpace=wrap;html=1;direction=north;fillColor=#f8cecc;strokeColor=#b85450;dashed=1;dashPattern=1 2;" parent="WIyWlLk6GJQsqaUBKTNV-1" vertex="1">
          <mxGeometry x="477" y="1765.0000000000005" width="280" height="60" as="geometry" />
        </mxCell>
        <mxCell id="bbMm7TcKJNfFNzZPyWXp-31" value="&lt;font style=&quot;font-size: 20px&quot;&gt;Mise en relation avec le site bancaire&lt;/font&gt;" style="rounded=1;whiteSpace=wrap;html=1;fillColor=#FFFFFF;gradientColor=none;aspect=fixed;" parent="WIyWlLk6GJQsqaUBKTNV-1" vertex="1">
          <mxGeometry x="531" y="901.23" width="152" height="76" as="geometry" />
        </mxCell>
        <mxCell id="1Tk0HkHW5LTEGYrqBiVO-3" value="" style="edgeStyle=orthogonalEdgeStyle;rounded=0;orthogonalLoop=1;jettySize=auto;html=1;" parent="WIyWlLk6GJQsqaUBKTNV-1" source="bbMm7TcKJNfFNzZPyWXp-33" target="1Tk0HkHW5LTEGYrqBiVO-2" edge="1">
          <mxGeometry relative="1" as="geometry" />
        </mxCell>
        <mxCell id="bbMm7TcKJNfFNzZPyWXp-33" value="&lt;font style=&quot;font-size: 20px&quot;&gt;Règlement refusé&lt;/font&gt;" style="rounded=1;whiteSpace=wrap;html=1;fillColor=#FFFFFF;gradientColor=none;" parent="WIyWlLk6GJQsqaUBKTNV-1" vertex="1">
          <mxGeometry x="780" y="817.58" width="120" height="60" as="geometry" />
        </mxCell>
        <mxCell id="lguihTrJesUZVeJumMv--23" value="" style="edgeStyle=orthogonalEdgeStyle;rounded=0;orthogonalLoop=1;jettySize=auto;html=1;startArrow=none;startFill=0;endArrow=classic;endFill=1;fontSize=15;entryX=1;entryY=1;entryDx=0;entryDy=0;" parent="WIyWlLk6GJQsqaUBKTNV-1" source="1Tk0HkHW5LTEGYrqBiVO-2" target="WIyWlLk6GJQsqaUBKTNV-6" edge="1">
          <mxGeometry relative="1" as="geometry">
            <mxPoint x="1029.9999999999995" y="680" as="targetPoint" />
            <Array as="points">
              <mxPoint x="1030" y="740" />
              <mxPoint x="260" y="740" />
              <mxPoint x="260" y="641" />
            </Array>
          </mxGeometry>
        </mxCell>
        <mxCell id="1Tk0HkHW5LTEGYrqBiVO-2" value="&lt;font style=&quot;font-size: 20px&quot;&gt;Commande annulée&lt;/font&gt;" style="rounded=1;whiteSpace=wrap;html=1;fillColor=#FFFFFF;gradientColor=none;" parent="WIyWlLk6GJQsqaUBKTNV-1" vertex="1">
          <mxGeometry x="970" y="817.58" width="120" height="60" as="geometry" />
        </mxCell>
        <mxCell id="bbMm7TcKJNfFNzZPyWXp-42" value="" style="edgeStyle=orthogonalEdgeStyle;rounded=0;orthogonalLoop=1;jettySize=auto;html=1;entryX=1;entryY=0.5;entryDx=0;entryDy=0;" parent="WIyWlLk6GJQsqaUBKTNV-1" source="bbMm7TcKJNfFNzZPyWXp-34" target="G-hIVbg5v9CWW5Yy8Wli-2" edge="1">
          <mxGeometry relative="1" as="geometry">
            <mxPoint x="870" y="1177.58" as="targetPoint" />
            <Array as="points">
              <mxPoint x="850" y="1118" />
              <mxPoint x="221" y="1118" />
            </Array>
          </mxGeometry>
        </mxCell>
        <mxCell id="bbMm7TcKJNfFNzZPyWXp-34" value="&lt;font style=&quot;font-size: 20px&quot;&gt;Règlement accepté&lt;/font&gt;" style="rounded=1;whiteSpace=wrap;html=1;fillColor=#FFFFFF;gradientColor=none;" parent="WIyWlLk6GJQsqaUBKTNV-1" vertex="1">
          <mxGeometry x="780" y="1000.8800000000001" width="120" height="60" as="geometry" />
        </mxCell>
        <mxCell id="bbMm7TcKJNfFNzZPyWXp-35" value="" style="endArrow=classic;html=1;exitX=1;exitY=0.25;exitDx=0;exitDy=0;entryX=0;entryY=0.5;entryDx=0;entryDy=0;" parent="WIyWlLk6GJQsqaUBKTNV-1" source="bbMm7TcKJNfFNzZPyWXp-31" target="bbMm7TcKJNfFNzZPyWXp-33" edge="1">
          <mxGeometry width="50" height="50" relative="1" as="geometry">
            <mxPoint x="760" y="917.58" as="sourcePoint" />
            <mxPoint x="810" y="867.58" as="targetPoint" />
          </mxGeometry>
        </mxCell>
        <mxCell id="bbMm7TcKJNfFNzZPyWXp-36" value="" style="endArrow=classic;html=1;entryX=0;entryY=0.5;entryDx=0;entryDy=0;exitX=1;exitY=0.75;exitDx=0;exitDy=0;" parent="WIyWlLk6GJQsqaUBKTNV-1" source="bbMm7TcKJNfFNzZPyWXp-31" target="bbMm7TcKJNfFNzZPyWXp-34" edge="1">
          <mxGeometry width="50" height="50" relative="1" as="geometry">
            <mxPoint x="760" y="917.58" as="sourcePoint" />
            <mxPoint x="810" y="867.58" as="targetPoint" />
          </mxGeometry>
        </mxCell>
        <mxCell id="1Tk0HkHW5LTEGYrqBiVO-5" value="&lt;font style=&quot;font-size: 20px&quot;&gt;&lt;i&gt;Commande en cours de livraison&lt;/i&gt;&lt;/font&gt;" style="rounded=1;whiteSpace=wrap;html=1;direction=north;fillColor=#fad7ac;strokeColor=#b46504;dashed=1;dashPattern=1 2;" parent="WIyWlLk6GJQsqaUBKTNV-1" vertex="1">
          <mxGeometry x="467" y="1960.0000000000002" width="280" height="60" as="geometry" />
        </mxCell>
        <mxCell id="1Tk0HkHW5LTEGYrqBiVO-6" value="" style="endArrow=none;html=1;entryX=0.5;entryY=0;entryDx=0;entryDy=0;exitX=0.5;exitY=1;exitDx=0;exitDy=0;dashed=1;" parent="WIyWlLk6GJQsqaUBKTNV-1" source="uQ-XWgEHN9rOL8nD1H7O-24" target="bbMm7TcKJNfFNzZPyWXp-15" edge="1">
          <mxGeometry width="50" height="50" relative="1" as="geometry">
            <mxPoint x="650" y="1427.58" as="sourcePoint" />
            <mxPoint x="700" y="1377.58" as="targetPoint" />
          </mxGeometry>
        </mxCell>
        <mxCell id="1Tk0HkHW5LTEGYrqBiVO-7" value="" style="endArrow=none;html=1;dashed=1;entryX=0.5;entryY=1;entryDx=0;entryDy=0;exitX=0.5;exitY=0;exitDx=0;exitDy=0;" parent="WIyWlLk6GJQsqaUBKTNV-1" source="bbMm7TcKJNfFNzZPyWXp-16" target="uQ-XWgEHN9rOL8nD1H7O-26" edge="1">
          <mxGeometry width="50" height="50" relative="1" as="geometry">
            <mxPoint x="650" y="1427.58" as="sourcePoint" />
            <mxPoint x="700" y="1377.58" as="targetPoint" />
          </mxGeometry>
        </mxCell>
        <mxCell id="1Tk0HkHW5LTEGYrqBiVO-10" value="&lt;font style=&quot;font-size: 20px&quot;&gt;&lt;i&gt;La commande est archivée&lt;/i&gt;&lt;/font&gt;" style="rounded=1;whiteSpace=wrap;html=1;direction=north;fillColor=#d5e8d4;strokeColor=#82b366;dashed=1;dashPattern=1 2;" parent="WIyWlLk6GJQsqaUBKTNV-1" vertex="1">
          <mxGeometry x="467" y="2186.6600000000003" width="280" height="60" as="geometry" />
        </mxCell>
        <mxCell id="1Tk0HkHW5LTEGYrqBiVO-15" value="" style="endArrow=classic;html=1;entryX=1;entryY=0.5;entryDx=0;entryDy=0;exitX=0;exitY=0.5;exitDx=0;exitDy=0;" parent="WIyWlLk6GJQsqaUBKTNV-1" source="uQ-XWgEHN9rOL8nD1H7O-26" target="uQ-XWgEHN9rOL8nD1H7O-28" edge="1">
          <mxGeometry width="50" height="50" relative="1" as="geometry">
            <mxPoint x="50" y="1477.58" as="sourcePoint" />
            <mxPoint x="100" y="1427.58" as="targetPoint" />
          </mxGeometry>
        </mxCell>
        <mxCell id="1Tk0HkHW5LTEGYrqBiVO-16" value="" style="endArrow=none;html=1;entryX=0.5;entryY=0;entryDx=0;entryDy=0;exitX=0.5;exitY=1;exitDx=0;exitDy=0;dashed=1;" parent="WIyWlLk6GJQsqaUBKTNV-1" source="uQ-XWgEHN9rOL8nD1H7O-30" target="1Tk0HkHW5LTEGYrqBiVO-10" edge="1">
          <mxGeometry width="50" height="50" relative="1" as="geometry">
            <mxPoint x="50" y="1527.58" as="sourcePoint" />
            <mxPoint x="100" y="1477.58" as="targetPoint" />
          </mxGeometry>
        </mxCell>
        <mxCell id="1Tk0HkHW5LTEGYrqBiVO-19" value="" style="ellipse;whiteSpace=wrap;html=1;aspect=fixed;fillColor=#dae8fc;gradientColor=#7ea6e0;strokeColor=#6c8ebf;" parent="WIyWlLk6GJQsqaUBKTNV-1" vertex="1">
          <mxGeometry x="-420" y="-120" width="40" height="40" as="geometry" />
        </mxCell>
        <mxCell id="1Tk0HkHW5LTEGYrqBiVO-20" value="" style="shape=sumEllipse;perimeter=ellipsePerimeter;whiteSpace=wrap;html=1;backgroundOutline=1;fillColor=#6C8EBF;gradientColor=#ffffff;aspect=fixed;strokeColor=#6C8EBF;" parent="WIyWlLk6GJQsqaUBKTNV-1" vertex="1">
          <mxGeometry x="810" y="2310" width="40" height="40" as="geometry" />
        </mxCell>
        <mxCell id="1Tk0HkHW5LTEGYrqBiVO-40" value="&lt;font style=&quot;font-size: 20px&quot;&gt;Panier validé&lt;/font&gt;" style="rounded=1;whiteSpace=wrap;html=1;fontSize=12;glass=0;strokeWidth=1;shadow=0;aspect=fixed;" parent="WIyWlLk6GJQsqaUBKTNV-1" vertex="1">
          <mxGeometry x="70" y="769.99" width="143" height="47.59" as="geometry" />
        </mxCell>
        <mxCell id="lguihTrJesUZVeJumMv--16" value="" style="edgeStyle=orthogonalEdgeStyle;rounded=0;orthogonalLoop=1;jettySize=auto;html=1;startArrow=none;startFill=0;endArrow=classic;endFill=1;fontSize=15;entryX=0;entryY=0.5;entryDx=0;entryDy=0;" parent="WIyWlLk6GJQsqaUBKTNV-1" source="WIyWlLk6GJQsqaUBKTNV-6" target="WIyWlLk6GJQsqaUBKTNV-3" edge="1">
          <mxGeometry relative="1" as="geometry">
            <mxPoint x="-118.5" y="537.5900000000001" as="targetPoint" />
            <Array as="points">
              <mxPoint x="-40" y="613" />
              <mxPoint x="-40" y="421" />
            </Array>
          </mxGeometry>
        </mxCell>
        <mxCell id="lguihTrJesUZVeJumMv--17" value="Non" style="edgeLabel;html=1;align=center;verticalAlign=middle;resizable=0;points=[];fontSize=15;" parent="lguihTrJesUZVeJumMv--16" vertex="1" connectable="0">
          <mxGeometry x="-0.304" y="-3" relative="1" as="geometry">
            <mxPoint x="57" y="8.79" as="offset" />
          </mxGeometry>
        </mxCell>
        <mxCell id="WIyWlLk6GJQsqaUBKTNV-6" value="&lt;font style=&quot;font-size: 20px&quot;&gt;&lt;font style=&quot;font-size: 20px&quot;&gt;Panier constitué ?&lt;/font&gt;&lt;/font&gt;" style="rhombus;whiteSpace=wrap;html=1;shadow=0;fontFamily=Helvetica;fontSize=12;align=center;strokeWidth=1;spacing=6;spacingTop=-4;aspect=fixed;fillColor=#FFFFFF;strokeColor=#000000;" parent="WIyWlLk6GJQsqaUBKTNV-1" vertex="1">
          <mxGeometry x="70" y="555.6" width="143" height="114.4" as="geometry" />
        </mxCell>
        <mxCell id="lguihTrJesUZVeJumMv--25" value="&lt;font style=&quot;font-size: 20px&quot;&gt;&lt;b&gt;Création panier&lt;/b&gt;&lt;/font&gt;" style="text;html=1;strokeColor=none;fillColor=none;align=center;verticalAlign=middle;whiteSpace=wrap;rounded=0;dashed=1;fontSize=15;" parent="WIyWlLk6GJQsqaUBKTNV-1" vertex="1">
          <mxGeometry x="280" y="240" width="170" height="20" as="geometry" />
        </mxCell>
        <mxCell id="lguihTrJesUZVeJumMv--33" value="" style="endArrow=none;html=1;fontSize=15;exitX=0.5;exitY=1;exitDx=0;exitDy=0;entryX=0.5;entryY=0;entryDx=0;entryDy=0;dashed=1;" parent="WIyWlLk6GJQsqaUBKTNV-1" source="uQ-XWgEHN9rOL8nD1H7O-28" target="1Tk0HkHW5LTEGYrqBiVO-5" edge="1">
          <mxGeometry width="50" height="50" relative="1" as="geometry">
            <mxPoint x="530" y="1637.58" as="sourcePoint" />
            <mxPoint x="580" y="1587.58" as="targetPoint" />
          </mxGeometry>
        </mxCell>
        <mxCell id="lguihTrJesUZVeJumMv--39" value="&lt;font style=&quot;font-size: 20px&quot;&gt;Choix du restaurant&lt;/font&gt;" style="rounded=1;whiteSpace=wrap;html=1;fontSize=12;glass=0;strokeWidth=1;shadow=0;" parent="WIyWlLk6GJQsqaUBKTNV-1" vertex="1">
          <mxGeometry x="826.5" y="80" width="140" height="50" as="geometry" />
        </mxCell>
        <mxCell id="_vTTdTyD4Z65t_9HGQAe-3" value="&lt;font style=&quot;font-size: 20px&quot;&gt;Autre ajout/&lt;br&gt;retrait ?&lt;br&gt;&lt;/font&gt;" style="rhombus;whiteSpace=wrap;html=1;aspect=fixed;" parent="WIyWlLk6GJQsqaUBKTNV-1" vertex="1">
          <mxGeometry x="500" y="539.3" width="147" height="147" as="geometry" />
        </mxCell>
        <mxCell id="_vTTdTyD4Z65t_9HGQAe-4" value="" style="endArrow=classic;html=1;entryX=1;entryY=0.5;entryDx=0;entryDy=0;exitX=0;exitY=0.5;exitDx=0;exitDy=0;" parent="WIyWlLk6GJQsqaUBKTNV-1" source="_vTTdTyD4Z65t_9HGQAe-3" target="WIyWlLk6GJQsqaUBKTNV-6" edge="1">
          <mxGeometry width="50" height="50" relative="1" as="geometry">
            <mxPoint x="530" y="500" as="sourcePoint" />
            <mxPoint x="580" y="450" as="targetPoint" />
          </mxGeometry>
        </mxCell>
        <mxCell id="_vTTdTyD4Z65t_9HGQAe-11" value="Non" style="edgeLabel;html=1;align=center;verticalAlign=middle;resizable=0;points=[];" parent="_vTTdTyD4Z65t_9HGQAe-4" vertex="1" connectable="0">
          <mxGeometry x="-0.6065" y="1" relative="1" as="geometry">
            <mxPoint as="offset" />
          </mxGeometry>
        </mxCell>
        <mxCell id="_vTTdTyD4Z65t_9HGQAe-9" value="" style="endArrow=classic;html=1;entryX=0.543;entryY=1.054;entryDx=0;entryDy=0;exitX=0.5;exitY=0;exitDx=0;exitDy=0;entryPerimeter=0;" parent="WIyWlLk6GJQsqaUBKTNV-1" source="_vTTdTyD4Z65t_9HGQAe-3" target="Fh5ID8DqyuNmly4tTI_g-26" edge="1">
          <mxGeometry width="50" height="50" relative="1" as="geometry">
            <mxPoint x="510" y="600" as="sourcePoint" />
            <mxPoint x="560" y="550" as="targetPoint" />
          </mxGeometry>
        </mxCell>
        <mxCell id="_vTTdTyD4Z65t_9HGQAe-10" value="Oui" style="edgeLabel;html=1;align=center;verticalAlign=middle;resizable=0;points=[];" parent="_vTTdTyD4Z65t_9HGQAe-9" vertex="1" connectable="0">
          <mxGeometry x="0.0287" y="6" relative="1" as="geometry">
            <mxPoint as="offset" />
          </mxGeometry>
        </mxCell>
        <mxCell id="xwcKqS5W2qBAeuI9ddff-3" value="" style="endArrow=classic;html=1;exitX=0.5;exitY=1;exitDx=0;exitDy=0;entryX=0.5;entryY=0;entryDx=0;entryDy=0;" parent="WIyWlLk6GJQsqaUBKTNV-1" source="1Tk0HkHW5LTEGYrqBiVO-40" target="WIyWlLk6GJQsqaUBKTNV-10" edge="1">
          <mxGeometry width="50" height="50" relative="1" as="geometry">
            <mxPoint x="90" y="940" as="sourcePoint" />
            <mxPoint x="140" y="880" as="targetPoint" />
          </mxGeometry>
        </mxCell>
        <mxCell id="xwcKqS5W2qBAeuI9ddff-12" value="&lt;font style=&quot;font-size: 16px&quot;&gt;* voir figure suivante&lt;/font&gt;" style="text;html=1;strokeColor=none;fillColor=none;align=center;verticalAlign=middle;whiteSpace=wrap;rounded=0;" parent="WIyWlLk6GJQsqaUBKTNV-1" vertex="1">
          <mxGeometry x="173" y="990.78" width="40" height="20" as="geometry" />
        </mxCell>
        <mxCell id="xwcKqS5W2qBAeuI9ddff-13" value="&lt;font style=&quot;font-size: 20px&quot;&gt;En ligne&lt;/font&gt;" style="rounded=1;whiteSpace=wrap;html=1;fillColor=#FFFFFF;gradientColor=none;aspect=fixed;" parent="WIyWlLk6GJQsqaUBKTNV-1" vertex="1">
          <mxGeometry x="305.5" y="908.23" width="124" height="62" as="geometry" />
        </mxCell>
        <mxCell id="xwcKqS5W2qBAeuI9ddff-14" value="&lt;font style=&quot;font-size: 20px&quot;&gt;A la livraison&lt;/font&gt;" style="rounded=1;whiteSpace=wrap;html=1;fillColor=#FFFFFF;gradientColor=none;aspect=fixed;" parent="WIyWlLk6GJQsqaUBKTNV-1" vertex="1">
          <mxGeometry x="-160" y="908.2299999999999" width="124" height="62" as="geometry" />
        </mxCell>
        <mxCell id="IyXliuLSOCAkXFB-hzut-0" value="&lt;font style=&quot;font-size: 20px&quot;&gt;Mise à jour des stocks&lt;/font&gt;" style="rounded=1;whiteSpace=wrap;html=1;direction=north;fillColor=#f5f5f5;strokeColor=#666666;fontColor=#333333;aspect=fixed;" vertex="1" parent="WIyWlLk6GJQsqaUBKTNV-1">
          <mxGeometry x="139.5" y="1240" width="154" height="64.26" as="geometry" />
        </mxCell>
        <mxCell id="IyXliuLSOCAkXFB-hzut-3" value="&lt;div style=&quot;text-align: left&quot;&gt;&lt;span style=&quot;font-family: &amp;#34;montserrat&amp;#34; , &amp;#34;arial&amp;#34; , sans-serif&quot;&gt;&lt;font style=&quot;font-size: 20px&quot;&gt;Passage à en cours de préparation&lt;/font&gt;&lt;/span&gt;&lt;br&gt;&lt;/div&gt;" style="rounded=1;whiteSpace=wrap;html=1;direction=north;fillColor=#dae8fc;strokeColor=#6c8ebf;" vertex="1" parent="WIyWlLk6GJQsqaUBKTNV-1">
          <mxGeometry x="134" y="1460" width="165" height="102.42" as="geometry" />
        </mxCell>
        <mxCell id="IyXliuLSOCAkXFB-hzut-4" value="&lt;div style=&quot;text-align: left&quot;&gt;&lt;span style=&quot;font-family: &amp;#34;montserrat&amp;#34; , &amp;#34;arial&amp;#34; , sans-serif&quot;&gt;&lt;font style=&quot;font-size: 20px&quot;&gt;Passage à prête - préparée&lt;/font&gt;&lt;/span&gt;&lt;br&gt;&lt;/div&gt;" style="rounded=1;whiteSpace=wrap;html=1;direction=north;fillColor=#dae8fc;strokeColor=#6c8ebf;" vertex="1" parent="WIyWlLk6GJQsqaUBKTNV-1">
          <mxGeometry x="134" y="1600" width="165" height="70" as="geometry" />
        </mxCell>
        <mxCell id="IyXliuLSOCAkXFB-hzut-5" value="" style="endArrow=classic;html=1;entryX=1;entryY=0.5;entryDx=0;entryDy=0;exitX=0;exitY=0.5;exitDx=0;exitDy=0;" edge="1" parent="WIyWlLk6GJQsqaUBKTNV-1" source="IyXliuLSOCAkXFB-hzut-3" target="IyXliuLSOCAkXFB-hzut-4">
          <mxGeometry width="50" height="50" relative="1" as="geometry">
            <mxPoint x="570" y="1700" as="sourcePoint" />
            <mxPoint x="620" y="1650" as="targetPoint" />
          </mxGeometry>
        </mxCell>
        <mxCell id="IyXliuLSOCAkXFB-hzut-6" value="" style="endArrow=classic;html=1;entryX=1;entryY=0.5;entryDx=0;entryDy=0;exitX=0;exitY=0.5;exitDx=0;exitDy=0;" edge="1" parent="WIyWlLk6GJQsqaUBKTNV-1" source="IyXliuLSOCAkXFB-hzut-4" target="uQ-XWgEHN9rOL8nD1H7O-26">
          <mxGeometry width="50" height="50" relative="1" as="geometry">
            <mxPoint x="570" y="1760" as="sourcePoint" />
            <mxPoint x="620" y="1710" as="targetPoint" />
          </mxGeometry>
        </mxCell>
        <mxCell id="IyXliuLSOCAkXFB-hzut-9" value="" style="endArrow=classic;html=1;entryX=1;entryY=0.5;entryDx=0;entryDy=0;exitX=0;exitY=0.5;exitDx=0;exitDy=0;" edge="1" parent="WIyWlLk6GJQsqaUBKTNV-1" source="IyXliuLSOCAkXFB-hzut-0" target="uQ-XWgEHN9rOL8nD1H7O-24">
          <mxGeometry width="50" height="50" relative="1" as="geometry">
            <mxPoint x="570" y="1510" as="sourcePoint" />
            <mxPoint x="620" y="1460" as="targetPoint" />
          </mxGeometry>
        </mxCell>
      </root>
    </mxGraphModel>
  </diagram>
</mxfile>
